<?xml version="1.0" encoding="UTF-8" standalone="no"?>
<!DOCTYPE svg PUBLIC "-//W3C//DTD SVG 1.1//EN" "http://www.w3.org/Graphics/SVG/1.1/DTD/svg11.dtd">
<svg width="100%" height="100%" viewBox="0 0 1024 240" version="1.1" xmlns="http://www.w3.org/2000/svg" xmlns:xlink="http://www.w3.org/1999/xlink" xml:space="preserve" xmlns:serif="http://www.serif.com/" style="fill-rule:evenodd;clip-rule:evenodd;stroke-linejoin:round;stroke-miterlimit:2;">
    <g transform="matrix(1,0,0,1,-475.548,-84.5009)">
        <g transform="matrix(200,0,0,200,564.648,255.896)">
            <path d="M0.137,-0.531L0.137,-0.187C0.137,-0.134 0.148,-0.095 0.171,-0.071C0.193,-0.046 0.228,-0.034 0.275,-0.034C0.338,-0.034 0.385,-0.05 0.414,-0.082C0.444,-0.114 0.459,-0.166 0.459,-0.238L0.459,-0.531L0.507,-0.531L0.507,0L0.466,0L0.457,-0.073L0.454,-0.073C0.438,-0.048 0.413,-0.028 0.381,-0.013C0.348,0.002 0.313,0.01 0.275,0.01C0.243,0.01 0.215,0.005 0.193,-0.004C0.171,-0.013 0.151,-0.026 0.135,-0.045C0.136,-0.015 0.137,0.013 0.137,0.038L0.137,0.24L0.089,0.24L0.089,-0.531L0.137,-0.531Z" style="fill:rgb(99,136,52);fill-rule:nonzero;"/>
        </g>
        <g transform="matrix(200,0,0,200,683.886,255.896)">
            <path d="M0.286,-0.489L0.161,-0.489L0.161,0L0.113,0L0.113,-0.489L0.014,-0.489L0.014,-0.517L0.113,-0.535L0.113,-0.576C0.113,-0.641 0.125,-0.689 0.149,-0.719C0.173,-0.75 0.212,-0.765 0.266,-0.765C0.295,-0.765 0.325,-0.761 0.354,-0.752L0.343,-0.71C0.317,-0.718 0.291,-0.722 0.265,-0.722C0.227,-0.722 0.201,-0.711 0.185,-0.689C0.169,-0.666 0.161,-0.63 0.161,-0.58L0.161,-0.531L0.286,-0.531L0.286,-0.489Z" style="fill:rgb(99,136,52);fill-rule:nonzero;"/>
        </g>
        <g transform="matrix(200,0,0,200,743.847,255.896)">
            <path d="M0.329,-0.714L0.063,0L0.012,0L0.278,-0.714L0.329,-0.714Z" style="fill:rgb(94,94,94);fill-rule:nonzero;"/>
        </g>
        <g transform="matrix(200,0,0,200,812.011,255.896)">
            <path d="M0.313,-0.541C0.387,-0.541 0.443,-0.518 0.481,-0.471C0.518,-0.424 0.537,-0.356 0.537,-0.266C0.537,-0.178 0.517,-0.11 0.478,-0.062C0.438,-0.014 0.383,0.01 0.311,0.01C0.273,0.01 0.239,0.002 0.209,-0.014C0.179,-0.029 0.155,-0.051 0.137,-0.08L0.133,-0.08L0.119,0L0.089,0L0.089,-0.76L0.137,-0.76L0.137,-0.569C0.137,-0.54 0.137,-0.514 0.135,-0.49L0.134,-0.448L0.137,-0.448C0.157,-0.48 0.182,-0.504 0.21,-0.519C0.239,-0.534 0.273,-0.541 0.313,-0.541ZM0.312,-0.497C0.25,-0.497 0.205,-0.479 0.178,-0.443C0.151,-0.408 0.137,-0.348 0.137,-0.266L0.137,-0.258C0.137,-0.178 0.151,-0.12 0.179,-0.085C0.208,-0.051 0.251,-0.033 0.311,-0.033C0.369,-0.033 0.413,-0.053 0.442,-0.094C0.471,-0.135 0.486,-0.192 0.486,-0.267C0.486,-0.42 0.428,-0.497 0.312,-0.497Z" style="fill:rgb(99,136,52);fill-rule:nonzero;"/>
        </g>
        <g transform="matrix(200,0,0,200,931.054,255.896)">
            <path d="M0.298,-0.541C0.32,-0.541 0.344,-0.539 0.37,-0.534L0.361,-0.488C0.339,-0.493 0.316,-0.496 0.292,-0.496C0.247,-0.496 0.21,-0.477 0.181,-0.438C0.152,-0.4 0.137,-0.352 0.137,-0.293L0.137,0L0.089,0L0.089,-0.531L0.13,-0.531L0.135,-0.435L0.138,-0.435C0.16,-0.474 0.183,-0.502 0.208,-0.517C0.233,-0.533 0.263,-0.541 0.298,-0.541Z" style="fill:rgb(99,136,52);fill-rule:nonzero;"/>
        </g>
        <g transform="matrix(200,0,0,200,1008.89,255.896)">
            <path d="M0.528,-0.266C0.528,-0.18 0.507,-0.112 0.465,-0.063C0.423,-0.015 0.365,0.01 0.291,0.01C0.244,0.01 0.203,-0.001 0.168,-0.024C0.132,-0.046 0.105,-0.079 0.086,-0.121C0.068,-0.163 0.058,-0.211 0.058,-0.266C0.058,-0.353 0.079,-0.42 0.121,-0.469C0.163,-0.517 0.221,-0.541 0.294,-0.541C0.367,-0.541 0.424,-0.517 0.466,-0.468C0.507,-0.419 0.528,-0.351 0.528,-0.266ZM0.109,-0.266C0.109,-0.193 0.125,-0.136 0.157,-0.095C0.189,-0.055 0.234,-0.034 0.293,-0.034C0.352,-0.034 0.397,-0.055 0.429,-0.095C0.461,-0.136 0.477,-0.193 0.477,-0.266C0.477,-0.339 0.461,-0.396 0.428,-0.437C0.396,-0.477 0.351,-0.497 0.292,-0.497C0.233,-0.497 0.188,-0.477 0.156,-0.437C0.125,-0.397 0.109,-0.34 0.109,-0.266Z" style="fill:rgb(99,136,52);fill-rule:nonzero;"/>
        </g>
        <g transform="matrix(200,0,0,200,1126.07,255.896)">
            <path d="M0.136,-0.233L0.407,-0.531L0.466,-0.531L0.257,-0.304L0.484,0L0.426,0L0.224,-0.268L0.137,-0.189L0.137,0L0.089,0L0.089,-0.76L0.137,-0.76L0.137,-0.379L0.134,-0.233L0.136,-0.233Z" style="fill:rgb(99,136,52);fill-rule:nonzero;"/>
        </g>
        <g transform="matrix(200,0,0,200,1222.85,255.896)">
            <path d="M0.303,0.01C0.226,0.01 0.166,-0.014 0.123,-0.062C0.08,-0.109 0.058,-0.176 0.058,-0.261C0.058,-0.346 0.079,-0.414 0.121,-0.465C0.162,-0.516 0.218,-0.541 0.289,-0.541C0.352,-0.541 0.401,-0.519 0.437,-0.476C0.473,-0.432 0.491,-0.373 0.491,-0.298L0.491,-0.259L0.109,-0.259C0.11,-0.186 0.127,-0.13 0.16,-0.092C0.193,-0.053 0.241,-0.034 0.303,-0.034C0.333,-0.034 0.36,-0.036 0.383,-0.041C0.406,-0.045 0.435,-0.054 0.47,-0.068L0.47,-0.024C0.44,-0.011 0.413,-0.002 0.387,0.003C0.362,0.007 0.334,0.01 0.303,0.01ZM0.289,-0.498C0.238,-0.498 0.197,-0.481 0.166,-0.448C0.135,-0.414 0.117,-0.365 0.112,-0.302L0.44,-0.302C0.44,-0.363 0.427,-0.411 0.4,-0.446C0.373,-0.481 0.336,-0.498 0.289,-0.498Z" style="fill:rgb(99,136,52);fill-rule:nonzero;"/>
        </g>
        <g transform="matrix(200,0,0,200,1332.62,255.896)">
            <path d="M0.298,-0.541C0.32,-0.541 0.344,-0.539 0.37,-0.534L0.361,-0.488C0.339,-0.493 0.316,-0.496 0.292,-0.496C0.247,-0.496 0.21,-0.477 0.181,-0.438C0.152,-0.4 0.137,-0.352 0.137,-0.293L0.137,0L0.089,0L0.089,-0.531L0.13,-0.531L0.135,-0.435L0.138,-0.435C0.16,-0.474 0.183,-0.502 0.208,-0.517C0.233,-0.533 0.263,-0.541 0.298,-0.541Z" style="fill:rgb(99,136,52);fill-rule:nonzero;"/>
        </g>
    </g>
</svg>
